{
  "accessors": [
    {
      "bufferView": 2,
      "componentType": 5126,
      "count": 48,
      "max": [
        0.48716700077056885,
        0.24479299783706665,
        0.41987499594688416
      ],
      "min": [
        -0.4787290096282959,
        0.1372780054807663,
        -0.4647209942340851
      ],
      "type": "VEC3"
    },
    {
      "bufferView": 2,
      "byteOffset": 576,
      "componentType": 5126,
      "count": 48,
      "max": [
        -1.5258823623298667e-05,
        0.9999999403953552,
        -1.5258823623298667e-05
      ],
      "min": [
        -1.5258823623298667e-05,
        -0.9999999403953552,
        -1.5258823623298667e-05
      ],
      "type": "VEC3"
    },
    {
      "bufferView": 1,
      "componentType": 5126,
      "count": 48,
      "max": [
        0.969756007194519,
        0.9728389978408813
      ],
      "min": [
        0.044564198702573776,
        0.7873929738998413
      ],
      "type": "VEC2"
    },
    {
      "bufferView": 0,
      "componentType": 5125,
      "count": 156,
      "type": "SCALAR"
    },
    {
      "bufferView": 2,
      "byteOffset": 1152,
      "componentType": 5126,
      "count": 2304,
      "max": [
        0.5,
        0.4995729923248291,
        0.5
      ],
      "min": [
        -0.5,
        -0.5,
        -0.5
      ],
      "type": "VEC3"
    },
    {
      "bufferView": 2,
      "byteOffset": 28800,
      "componentType": 5126,
      "count": 2304,
      "max": [
        0.9999999403953552,
        0.9999999403953552,
        0.9999999403953552
      ],
      "min": [
        -0.9999999403953552,
        -0.9999999403953552,
        -0.9999999403953552
      ],
      "type": "VEC3"
    },
    {
      "bufferView": 1,
      "byteOffset": 384,
      "componentType": 5126,
      "count": 2304,
      "max": [
        0.27807700634002686,
        0.2780799865722656
      ],
      "min": [
        0.037479501217603683,
        0.025717899203300476
      ],
      "type": "VEC2"
    },
    {
      "bufferView": 0,
      "byteOffset": 624,
      "componentType": 5125,
      "count": 10728,
      "type": "SCALAR"
    },
    {
      "bufferView": 2,
      "byteOffset": 56448,
      "componentType": 5126,
      "count": 496,
      "max": [
        0.4988099932670593,
        0.2575800120830536,
        0.4457849860191345
      ],
      "min": [
        -0.4903869926929474,
        0.06203560158610344,
        -0.49063101410865784
      ],
      "type": "VEC3"
    },
    {
      "bufferView": 2,
      "byteOffset": 62400,
      "componentType": 5126,
      "count": 496,
      "max": [
        0.9378488659858704,
        0.9999999403953552,
        0.7519289255142212
      ],
      "min": [
        -0.9378641247749329,
        -0.9999999403953552,
        -0.7519572377204895
      ],
      "type": "VEC3"
    },
    {
      "bufferView": 1,
      "byteOffset": 18816,
      "componentType": 5126,
      "count": 496,
      "max": [
        0.18024399876594543,
        0.7613610029220581
      ],
      "min": [
        0.032969798892736435,
        0.3175860047340393
      ],
      "type": "VEC2"
    },
    {
      "bufferView": 0,
      "byteOffset": 43536,
      "componentType": 5125,
      "count": 2280,
      "type": "SCALAR"
    },
    {
      "bufferView": 2,
      "byteOffset": 68352,
      "componentType": 5126,
      "count": 2672,
      "max": [
        0.48716700077056885,
        0.5,
        0.41987499594688416
      ],
      "min": [
        -0.4787290096282959,
        -0.45153701305389404,
        -0.4647209942340851
      ],
      "type": "VEC3"
    },
    {
      "bufferView": 2,
      "byteOffset": 100416,
      "componentType": 5126,
      "count": 2672,
      "max": [
        0.9999999403953552,
        0.9999999403953552,
        0.9999999403953552
      ],
      "min": [
        -0.9999999403953552,
        -0.9999999403953552,
        -0.9999999403953552
      ],
      "type": "VEC3"
    },
    {
      "bufferView": 3,
      "componentType": 5126,
      "count": 2672,
      "max": [
        1.0,
        1.0,
        0.9789634346961975,
        1.0
      ],
      "min": [
        -1.0,
        -1.0,
        -0.9793899059295654,
        -1.0
      ],
      "type": "VEC4"
    },
    {
      "bufferView": 1,
      "byteOffset": 22784,
      "componentType": 5126,
      "count": 2672,
      "max": [
        0.972432017326355,
        0.757381021976471
      ],
      "min": [
        0.29328399896621704,
        0.026117300614714622
      ],
      "type": "VEC2"
    },
    {
      "bufferView": 0,
      "byteOffset": 52656,
      "componentType": 5125,
      "count": 15216,
      "type": "SCALAR"
    }
  ],
  "asset": {
    "extras": {
      "author": "ℜ𝔢𝔞𝔩 𝔖𝔩𝔦𝔪 𝔖𝔥𝔞𝔡𝔶 (https://sketchfab.com/real_slimshady)",
      "license": "CC-BY-4.0 (http://creativecommons.org/licenses/by/4.0/)",
      "source": "https://sketchfab.com/3d-models/military-storage-box-waterproof-container-02dfc360ab914d76a7fc1e7c73de5326",
      "title": "Military Storage Box Waterproof Container"
    },
    "generator": "Sketchfab-16.54.0",
    "version": "2.0"
  },
  "bufferViews": [
    {
      "buffer": 0,
      "byteLength": 113520,
      "name": "floatBufferViews",
      "target": 34963
    },
    {
      "buffer": 0,
      "byteLength": 44160,
      "byteOffset": 113520,
      "byteStride": 8,
      "name": "floatBufferViews",
      "target": 34962
    },
    {
      "buffer": 0,
      "byteLength": 132480,
      "byteOffset": 157680,
      "byteStride": 12,
      "name": "floatBufferViews",
      "target": 34962
    },
    {
      "buffer": 0,
      "byteLength": 42752,
      "byteOffset": 290160,
      "byteStride": 16,
      "name": "floatBufferViews",
      "target": 34962
    }
  ],
  "buffers": [
    {
      "byteLength": 332912,
      "uri": "scene.bin"
    }
  ],
  "images": [
    {
      "uri": "textures/Material3-material_baseColor.png"
    }
  ],
  "materials": [
    {
      "doubleSided": true,
      "name": "Material0-material",
      "pbrMetallicRoughness": {
        "metallicFactor": 0.0,
        "roughnessFactor": 0.6
      }
    },
    {
      "doubleSided": true,
      "name": "Material1-material",
      "pbrMetallicRoughness": {
        "roughnessFactor": 0.1815720531760192
      }
    },
    {
      "doubleSided": true,
      "name": "Material2-material",
      "pbrMetallicRoughness": {
        "roughnessFactor": 0.2498174636721634
      }
    },
    {
      "doubleSided": true,
      "name": "Material3-material",
      "normalTexture": {
        "index": 0
      },
      "pbrMetallicRoughness": {
        "baseColorFactor": [
          0.1359738418625394,
          0.1359738418625394,
          0.1359738418625394,
          1.0
        ],
        "baseColorTexture": {
          "index": 0
        },
        "metallicFactor": 0.2538522781740611,
        "roughnessFactor": 0.8804692290932027
      }
    }
  ],
  "meshes": [
    {
      "name": "Material0-material",
      "primitives": [
        {
          "attributes": {
            "NORMAL": 1,
            "POSITION": 0,
            "TEXCOORD_0": 2
          },
          "indices": 3,
          "material": 0,
          "mode": 4
        }
      ]
    },
    {
      "name": "Material1-material",
      "primitives": [
        {
          "attributes": {
            "NORMAL": 5,
            "POSITION": 4,
            "TEXCOORD_0": 6
          },
          "indices": 7,
          "material": 1,
          "mode": 4
        }
      ]
    },
    {
      "name": "Material2-material",
      "primitives": [
        {
          "attributes": {
            "NORMAL": 9,
            "POSITION": 8,
            "TEXCOORD_0": 10
          },
          "indices": 11,
          "material": 2,
          "mode": 4
        }
      ]
    },
    {
      "name": "Material3-material",
      "primitives": [
        {
          "attributes": {
            "NORMAL": 13,
            "POSITION": 12,
            "TANGENT": 14,
            "TEXCOORD_0": 15
          },
          "indices": 16,
          "material": 3,
          "mode": 4
        }
      ]
    }
  ],
  "nodes": [
    {
      "children": [
        1
      ],
      "matrix": [
        1.0,
        0.0,
        0.0,
        0.0,
        0.0,
        2.220446049250313e-16,
        -1.0,
        0.0,
        0.0,
        1.0,
        2.220446049250313e-16,
        0.0,
        0.0,
        0.0,
        0.0,
        1.0
      ],
      "name": "Sketchfab_model"
    },
    {
      "children": [
        2
      ],
      "name": "Collada visual scene group"
    },
    {
      "children": [
        3,
        4,
        5,
        6
      ],
      "matrix": [
        -0.990256,
        0.956279,
        -2.46158e-07,
        0.0,
        7.94024e-08,
        3.1761e-07,
        0.666076,
        0.0,
        0.493396,
        0.510926,
        -2.54013e-07,
        0.0,
        0.0,
        0.0,
        0.0,
        1.0
      ],
      "name": "prim0"
    },
    {
      "mesh": 0,
      "name": "Material0-material"
    },
    {
      "mesh": 1,
      "name": "Material1-material"
    },
    {
      "mesh": 2,
      "name": "Material2-material"
    },
    {
      "mesh": 3,
      "name": "Material3-material"
    }
  ],
  "samplers": [
    {
      "magFilter": 9729,
      "minFilter": 9987,
      "wrapS": 10497,
      "wrapT": 10497
    }
  ],
  "scene": 0,
  "scenes": [
    {
      "name": "Sketchfab_Scene",
      "nodes": [
        0
      ]
    }
  ],
  "textures": [
    {
      "sampler": 0,
      "source": 0
    }
  ]
}
